<!-- Generator: Adobe Illustrator 24.0.3, SVG Export Plug-In  -->
<svg version="1.1" xmlns="http://www.w3.org/2000/svg" xmlns:xlink="http://www.w3.org/1999/xlink" x="0px" y="0px"
	 width="468.56px" height="883.41px" viewBox="0 0 468.56 883.41" style="enable-background:new 0 0 468.56 883.41;"
	 xml:space="preserve">
<style type="text/css">
	.st1{fill:none;stroke:#FFFFFF;stroke-miterlimit:10;}
</style>
<defs>
</defs>
<g>
	<line class="st2" x1="6.53" y1="332.26" x2="112.36" y2="298.62"/>
	<path class="st3" d="M59.45,319.13c0,0,26.66,88.6,18.46,100.09s-29.53,31.17-29.53,31.17"/>
	<path class="st4" d="M166.51,278.11c0,0,46.76,55.79,14.77,95.16s-44.3,52.5-44.3,52.5l-57.5-15.59"/>
	<polyline class="st5" points="136.97,425.78 164.87,455.31 131.23,493.87 93.49,499.61 	"/>
	<path class="st6" d="M131.23,493.87l48.57-12.46c0,0,12.24,14.55-14.94,29.1c-27.18,14.55-52.5,42.88-52.5,42.88L81.8,565.63"/>
	<line class="st0" x1="179.8" y1="481.41" x2="338.88" y2="441.7"/>
	<path class="st7" d="M112.36,553.38c0,0,36.81,9.95,59.02-17.61c0,0,65.67-9.95,87.96,0l31.48,24.5"/>
	<polyline class="st0" points="147.25,552.26 147.25,566.54 238.76,644.49 	"/>
	<polyline class="st8" points="225.2,701.12 209,701.12 192.47,711.49 126.05,718.62 116.97,707.6 	"/>
	<path class="st9" d="M164.87,455.31c0,0,49.32,14.45,59.04-49.07l10.16-4.54l17.06-42.13c0,0-27.87,1.94-30.46,11.02
		c-2.59,9.07-1.94-11.02-1.94-11.02l-25.71,2.59"/>
	<path class="st10" d="M246.59,351.94l4.54,7.64c0,0,33.39-1.3,39.7,12.31s38.07,55.09,38.07,55.09"/>
	<path class="st11" d="M338.88,402.19c0,0-22.95-26.4-34.61-40.01c-11.67-13.61,3.89-29.92,3.89-29.92l-89.43,27.33"/>
	<path class="st12" d="M170.99,284.06l15.97-15.2l2.59,7.6l112.12-29.64l27.22,18.62c0,0-23.33,26.1,7.13,38.41
		c0,0-3.24,25.7-27.87,28.41"/>
	<polyline class="st13" points="328.9,265.44 350.93,270.15 350.28,287 	"/>
	<path class="st14" d="M316.58,131.46c0,0,53.79,115.36,44.07,127.02c-9.72,11.67-17.42,10.02-17.42,10.02"/>
	<polyline class="st15" points="361.83,103.41 367.13,131.46 364.48,194.97 350.93,202.75 	"/>
	<polyline class="st16" points="370.37,103.41 406.02,180.72 364.48,194.97 	"/>
	<polyline class="st17" points="355.54,226.27 398.89,214.42 410.55,226.27 	"/>
	<polyline class="st18" points="389.17,220.34 402.13,237.1 360.65,258.48 	"/>
	<path class="st19" d="M24.04,180.51c0,0-35.38,50.29-9.52,93.18s-9.45,57.86-9.45,57.86s34.02-4.08,9.49,21.77
		s-9.49,58.51-9.49,58.51s29.86,6.8,33.94,16.33s-4.08,17.69,10.89,28.57S85.27,503,92.08,497.56c6.8-5.44-10.89,68.98-10.89,68.98
		l34.02,140.57l-8.16,35.38l19.05,13.61l28.57-21.77l48.99,31.3c0,0,31.3,123.82,88.45,117.02c0,0,43.54-38.1-68.04-182.34
		c0,0,16.33-76.2,47.62-95.25c0,0,20.41-28.24,20.41-44.73h16.33v-24.83c0,0,61.23-34.46,58.51-47.76
		c-2.72-13.3-38.1-59.56-38.1-59.56l21.77-56.32l-17.69-23.96c0,0,23.13,5.44,23.13-10.89s-5.44-50.56-5.44-50.56l59.87-56.9h34.02
		c-19.05-6.84-9.52-33.56-9.52-33.56l-12.25,17.19l-16.33-27.21c0,0,0-48.41,17.69-57.54l43.54-44.51c0,0-31.3-10.06-55.79-83.28
		c0,0-32.66-2.46-32.66,13.87s2.72,72.75-9.52,83.32s-76.2,43.65-83,44.8s-21.77,58.3-43.54,65.1s-59.87,8.25-53.07,21.81
		c6.8,13.57-50.35,83.63-65.31,77.17c-14.97-6.46-21.77-20.28-21.77-20.28s16.33-45.97-9.52-56.9c0,0-21.77,25.07-23.13,15.92
		c-1.36-9.16,12.25-36.37,12.25-36.37S85.27,169.62,24.04,180.51z"/>
</g>
</svg>
